<?xml version="1.0" standalone="no"?>
<!DOCTYPE svg PUBLIC "-//W3C//DTD SVG 20010904//EN"
 "http://www.w3.org/TR/2001/REC-SVG-20010904/DTD/svg10.dtd">
<svg version="1.0" xmlns="http://www.w3.org/2000/svg"
 width="700.000000pt" height="700.000000pt" viewBox="0 0 700.000000 700.000000"
 preserveAspectRatio="xMidYMid meet">
<metadata>
Created by potrace 1.11, written by Peter Selinger 2001-2013
</metadata>
<g transform="translate(0.000000,700.000000) scale(0.100000,-0.100000)"
fill="#000000" stroke="none">
<path d="M2296 6910 c-27 -5 -28 -6 -12 -19 10 -8 35 -49 56 -91 36 -72 38
-78 31 -142 -8 -74 8 -175 34 -214 20 -31 20 -31 -14 -37 -46 -10 -151 -64
-213 -110 -138 -104 -234 -212 -364 -410 -144 -217 -159 -236 -186 -229 -19 4
-20 2 -14 -22 7 -29 -1 -43 -75 -123 -39 -43 -40 -43 -87 -35 -26 4 -73 3
-104 -2 -54 -8 -61 -7 -98 18 -48 32 -59 33 -34 4 17 -19 17 -21 2 -15 -29 10
-21 -18 10 -39 20 -14 47 -19 102 -20 41 -1 77 2 80 6 3 4 19 3 36 -2 30 -8
31 -9 20 -43 -13 -41 -24 -47 -68 -34 -18 5 -51 8 -73 8 -22 -1 -31 -3 -20 -5
93 -20 120 -33 96 -48 -5 -3 -11 -19 -13 -36 -3 -22 2 -35 19 -52 19 -18 23
-32 23 -82 0 -106 35 -235 90 -332 22 -40 139 -210 178 -259 4 -5 32 -50 62
-100 68 -114 80 -127 225 -243 66 -54 122 -99 125 -102 32 -32 235 -166 295
-194 37 -18 126 -40 272 -67 119 -22 220 -42 223 -44 4 -2 29 -7 56 -11 27 -3
61 -12 76 -20 15 -8 40 -13 55 -13 71 4 74 2 69 -38 -5 -40 -18 -228 -19 -275
-1 -26 -1 -27 -31 -11 -17 8 -63 39 -101 68 -104 77 -416 255 -449 255 -34 0
-146 -104 -186 -175 -44 -78 -101 -243 -116 -340 -2 -11 -5 -35 -8 -53 -12
-72 -23 -159 -32 -252 -4 -45 -3 -410 1 -475 5 -83 19 -203 29 -260 31 -167 6
-133 365 -495 279 -282 331 -330 361 -335 19 -3 42 -8 50 -10 8 -2 35 -7 60
-10 39 -6 99 -33 240 -112 27 -15 53 -19 108 -18 73 1 74 1 100 -33 24 -31 25
-37 16 -91 -13 -79 -6 -102 39 -124 l37 -19 -27 -33 c-16 -18 -37 -35 -47 -37
-13 -2 -27 -22 -43 -60 -25 -63 -21 -94 16 -127 20 -17 61 -174 87 -336 3 -16
9 -46 14 -65 5 -19 12 -53 16 -75 9 -59 34 -114 56 -126 11 -6 41 -13 66 -14
28 -3 49 -10 54 -19 12 -21 66 -19 98 2 14 9 40 26 58 37 35 22 42 35 44 89 2
68 -59 105 -145 88 -28 -6 -52 -9 -53 -9 -1 3 -54 257 -60 287 -3 14 -9 41
-14 60 -5 19 -12 50 -15 69 -3 19 -8 37 -10 41 -3 4 4 15 14 24 18 16 19 15
30 -15 6 -18 11 -42 11 -55 0 -28 36 -64 65 -64 14 0 24 -10 32 -30 16 -43 58
-41 109 6 21 19 47 43 56 51 38 35 34 124 -6 162 -25 23 -48 29 -81 18 -18 -6
-25 1 -46 48 l-26 55 95 107 c52 60 111 126 131 148 45 49 159 180 192 219 65
77 97 102 166 129 l71 28 148 442 c81 243 149 448 152 455 3 9 16 6 47 -12
l42 -25 17 102 c16 99 20 127 31 185 3 15 12 72 21 127 21 135 17 128 59 111
l36 -15 -6 34 c-3 19 -7 50 -10 68 -2 17 -7 48 -10 67 -15 100 -14 104 15 146
16 22 30 54 32 72 l3 31 44 -20 c24 -11 47 -18 51 -17 4 2 -9 64 -27 138 -18
74 -35 144 -38 155 -5 24 -59 244 -81 330 -8 33 -17 71 -20 85 -3 13 -7 26 -9
29 -3 2 7 25 21 51 21 38 46 61 142 125 102 68 127 91 197 178 107 134 110
139 139 239 l25 88 -45 162 c-25 90 -51 186 -59 213 -8 28 -28 100 -46 160
-33 119 -151 457 -172 491 -6 12 -55 59 -107 105 -52 45 -106 93 -120 105 -14
13 -36 33 -50 44 -48 41 -154 135 -172 152 -19 19 -55 23 -293 33 -82 4 -177
8 -210 10 -33 2 -121 6 -195 10 -241 11 -226 8 -341 76 -57 33 -112 63 -122
65 -10 1 -52 13 -95 24 -42 12 -85 23 -95 25 -46 10 -55 20 -97 107 -84 177
-171 303 -231 333 -28 15 -29 15 -53 -22 -47 -71 -64 -222 -37 -320 13 -47 -9
-43 -56 10 -169 189 -341 328 -473 381 -52 21 -142 34 -184 26z m-865 -1663
c-10 -9 -11 -8 -5 6 3 10 9 15 12 12 3 -3 0 -11 -7 -18z m3472 -1285 c3 -34
-1 -47 -22 -72 l-26 -31 -2 80 c-3 69 0 80 15 83 22 5 30 -8 35 -60z m-2018
-422 c3 -6 -1 -7 -9 -4 -18 7 -21 14 -7 14 6 0 13 -4 16 -10z m36 -27 c13 -16
12 -17 -3 -4 -10 7 -18 15 -18 17 0 8 8 3 21 -13z m869 -2227 c0 -11 -50 -90
-51 -81 -8 47 -3 70 16 77 26 8 35 9 35 4z"/>
</g>
</svg>
