<?xml version="1.0" encoding="utf-8"?>
<!-- Generator: Adobe Illustrator 25.0.0, SVG Export Plug-In . SVG Version: 6.00 Build 0)  -->
<svg version="1.1" id="Layer_1" xmlns="http://www.w3.org/2000/svg" xmlns:xlink="http://www.w3.org/1999/xlink" x="0px" y="0px"
	 viewBox="0 0 100 100" style="enable-background:new 0 0 100 100;" xml:space="preserve">
<style type="text/css">
	.st0{fill:#FFFFFF;stroke:#000000;stroke-miterlimit:10;}
	.st1{fill:#010101;}
</style>
<path class="st0" d="M20.7,6.4"/>
<g>
	<path class="st1" d="M16.8,6.9c-0.8,0-1.5,0.1-2.2,0.4c-2.2,0.9-3.6,3.1-3.6,5.4V87c0,3.2,2.6,5.9,5.9,5.9c1.6,0,3.1-0.6,4.2-1.7
		l37.1-37.1c2.3-2.2,2.3-5.9,0.1-8.2c0,0-0.1-0.1-0.1-0.1L21,8.6C19.9,7.5,18.4,6.9,16.8,6.9z"/>
	<path class="st1" d="M64.1,18.6v62.5c0,5.2,4.2,9.4,9.4,9.4c5.2,0,9.4-4.2,9.4-9.4V18.6c0-5.2-4.2-9.4-9.4-9.4
		C68.3,9.3,64.1,13.5,64.1,18.6z"/>
</g>
</svg>
